<?xml version="1.0" encoding="UTF-8" standalone="no"?><svg xmlns="http://www.w3.org/2000/svg" xmlns:xlink="http://www.w3.org/1999/xlink" clip-rule="evenodd" stroke-miterlimit="10" viewBox="0 0 65 13"><desc>SVG generated by Keynote</desc><defs></defs><g transform="matrix(1.00, 0.00, -0.00, -1.00, 0.0, 13.0)"><text xml:space="preserve" font-family="ClanPro-NarrBlack,Clan Pro" font-weight="bold" font-size="12.0" fill="#2FA2FF" transform="matrix(1.00, 0.00, -0.00, -1.00, 1.0, 2.1)">R</text><text xml:space="preserve" font-family="ClanPro-NarrBlack,Clan Pro" font-weight="bold" font-size="12.0" fill="#2FA2FF" transform="matrix(1.00, 0.00, -0.00, -1.00, 8.5, 2.1)">e</text><text xml:space="preserve" font-family="ClanPro-NarrBlack,Clan Pro" font-weight="bold" font-size="12.0" fill="#2FA2FF" transform="matrix(1.00, 0.00, -0.00, -1.00, 15.0, 2.1)">s</text><text xml:space="preserve" font-family="ClanPro-NarrBlack,Clan Pro" font-weight="bold" font-size="12.0" fill="#2FA2FF" transform="matrix(1.00, 0.00, -0.00, -1.00, 20.5, 2.1)">e</text><text xml:space="preserve" font-family="ClanPro-NarrBlack,Clan Pro" font-weight="bold" font-size="12.0" fill="#2FA2FF" transform="matrix(1.00, 0.00, -0.00, -1.00, 27.1, 2.1)">a</text><text xml:space="preserve" font-family="ClanPro-NarrBlack,Clan Pro" font-weight="bold" font-size="12.0" fill="#2FA2FF" transform="matrix(1.00, 0.00, -0.00, -1.00, 33.7, 2.1)">r</text><text xml:space="preserve" font-family="ClanPro-NarrBlack,Clan Pro" font-weight="bold" font-size="12.0" fill="#2FA2FF" transform="matrix(1.00, 0.00, -0.00, -1.00, 38.7, 2.1)">c</text><text xml:space="preserve" font-family="ClanPro-NarrBlack,Clan Pro" font-weight="bold" font-size="12.0" fill="#2FA2FF" transform="matrix(1.00, 0.00, -0.00, -1.00, 44.1, 2.1)">h</text><text xml:space="preserve" font-family="ClanPro-NarrBlack,Clan Pro" font-weight="bold" font-size="12.0" fill="#2FA2FF" transform="matrix(1.00, 0.00, -0.00, -1.00, 51.2, 2.1)">e</text><text xml:space="preserve" font-family="ClanPro-NarrBlack,Clan Pro" font-weight="bold" font-size="12.0" fill="#2FA2FF" transform="matrix(1.00, 0.00, -0.00, -1.00, 57.8, 2.1)">r</text></g></svg>