<?xml version="1.0" encoding="UTF-8" standalone="no"?><svg xmlns="http://www.w3.org/2000/svg" xmlns:xlink="http://www.w3.org/1999/xlink" clip-rule="evenodd" stroke-miterlimit="10" viewBox="0 0 1024 768"><desc>SVG generated by Keynote</desc><defs></defs><g transform="matrix(1.00, 0.00, -0.00, -1.00, 0.0, 768.0)"><path d="M 0.0 768.0 L 1024.0 768.0 L 1024.0 0.0 L 0.0 0.0 Z M 0.0 768.0 " fill="#002451"></path><text xml:space="preserve" font-family="ClanPro-WideThin,Clan Pro" font-size="22.0" fill="#FEFFFF" transform="matrix(1.00, 0.00, -0.00, -1.00, 368.8, 319.2)">“</text><text xml:space="preserve" font-family="ClanPro-WideThin,Clan Pro" font-size="22.0" fill="#FEFFFF" transform="matrix(1.00, 0.00, -0.00, -1.00, 378.1, 319.2)">W</text><text xml:space="preserve" font-family="ClanPro-WideThin,Clan Pro" font-size="22.0" fill="#FEFFFF" transform="matrix(1.00, 0.00, -0.00, -1.00, 403.5, 319.2)">e</text><text xml:space="preserve" font-family="ClanPro-WideThin,Clan Pro" font-size="22.0" fill="#FEFFFF" transform="matrix(1.00, 0.00, -0.00, -1.00, 418.5, 319.2)"> </text><text xml:space="preserve" font-family="ClanPro-WideThin,Clan Pro" font-size="22.0" fill="#FEFFFF" transform="matrix(1.00, 0.00, -0.00, -1.00, 427.2, 319.2)">A</text><text xml:space="preserve" font-family="ClanPro-WideThin,Clan Pro" font-size="22.0" fill="#FEFFFF" transform="matrix(1.00, 0.00, -0.00, -1.00, 445.4, 319.2)">l</text><text xml:space="preserve" font-family="ClanPro-WideThin,Clan Pro" font-size="22.0" fill="#FEFFFF" transform="matrix(1.00, 0.00, -0.00, -1.00, 453.0, 319.2)">l</text><text xml:space="preserve" font-family="ClanPro-WideThin,Clan Pro" font-size="22.0" fill="#FEFFFF" transform="matrix(1.00, 0.00, -0.00, -1.00, 460.7, 319.2)"> </text><text xml:space="preserve" font-family="ClanPro-WideThin,Clan Pro" font-size="22.0" fill="#FEFFFF" transform="matrix(1.00, 0.00, -0.00, -1.00, 469.3, 319.2)">R</text><text xml:space="preserve" font-family="ClanPro-WideThin,Clan Pro" font-size="22.0" fill="#FEFFFF" transform="matrix(1.00, 0.00, -0.00, -1.00, 486.3, 319.2)">i</text><text xml:space="preserve" font-family="ClanPro-WideThin,Clan Pro" font-size="22.0" fill="#FEFFFF" transform="matrix(1.00, 0.00, -0.00, -1.00, 494.2, 319.2)">d</text><text xml:space="preserve" font-family="ClanPro-WideThin,Clan Pro" font-size="22.0" fill="#FEFFFF" transform="matrix(1.00, 0.00, -0.00, -1.00, 510.6, 319.2)">e</text><text xml:space="preserve" font-family="ClanPro-WideThin,Clan Pro" font-size="22.0" fill="#FEFFFF" transform="matrix(1.00, 0.00, -0.00, -1.00, 525.6, 319.2)"> </text><text xml:space="preserve" font-family="ClanPro-WideThin,Clan Pro" font-size="22.0" fill="#FEFFFF" transform="matrix(1.00, 0.00, -0.00, -1.00, 534.2, 319.2)">T</text><text xml:space="preserve" font-family="ClanPro-WideThin,Clan Pro" font-size="22.0" fill="#FEFFFF" transform="matrix(1.00, 0.00, -0.00, -1.00, 547.9, 319.2)">o</text><text xml:space="preserve" font-family="ClanPro-WideThin,Clan Pro" font-size="22.0" fill="#FEFFFF" transform="matrix(1.00, 0.00, -0.00, -1.00, 563.9, 319.2)">g</text><text xml:space="preserve" font-family="ClanPro-WideThin,Clan Pro" font-size="22.0" fill="#FEFFFF" transform="matrix(1.00, 0.00, -0.00, -1.00, 578.5, 319.2)">e</text><text xml:space="preserve" font-family="ClanPro-WideThin,Clan Pro" font-size="22.0" fill="#FEFFFF" transform="matrix(1.00, 0.00, -0.00, -1.00, 593.2, 319.2)">t</text><text xml:space="preserve" font-family="ClanPro-WideThin,Clan Pro" font-size="22.0" fill="#FEFFFF" transform="matrix(1.00, 0.00, -0.00, -1.00, 603.3, 319.2)">h</text><text xml:space="preserve" font-family="ClanPro-WideThin,Clan Pro" font-size="22.0" fill="#FEFFFF" transform="matrix(1.00, 0.00, -0.00, -1.00, 619.5, 319.2)">e</text><text xml:space="preserve" font-family="ClanPro-WideThin,Clan Pro" font-size="22.0" fill="#FEFFFF" transform="matrix(1.00, 0.00, -0.00, -1.00, 634.5, 319.2)">r</text><text xml:space="preserve" font-family="ClanPro-WideThin,Clan Pro" font-size="22.0" fill="#FEFFFF" transform="matrix(1.00, 0.00, -0.00, -1.00, 646.0, 319.2)">”</text><text xml:space="preserve" font-family="ClanPro-WideBook,Clan Pro" font-size="18.0" fill="#FEFFFF" transform="matrix(1.00, 0.00, -0.00, -1.00, 382.8, 280.6)">D</text><text xml:space="preserve" font-family="ClanPro-WideBook,Clan Pro" font-size="18.0" fill="#FEFFFF" transform="matrix(1.00, 0.00, -0.00, -1.00, 398.7, 280.6)">e</text><text xml:space="preserve" font-family="ClanPro-WideBook,Clan Pro" font-size="18.0" fill="#FEFFFF" transform="matrix(1.00, 0.00, -0.00, -1.00, 410.8, 280.6)">s</text><text xml:space="preserve" font-family="ClanPro-WideBook,Clan Pro" font-size="18.0" fill="#FEFFFF" transform="matrix(1.00, 0.00, -0.00, -1.00, 421.3, 280.6)">i</text><text xml:space="preserve" font-family="ClanPro-WideBook,Clan Pro" font-size="18.0" fill="#FEFFFF" transform="matrix(1.00, 0.00, -0.00, -1.00, 427.8, 280.6)">g</text><text xml:space="preserve" font-family="ClanPro-WideBook,Clan Pro" font-size="18.0" fill="#FEFFFF" transform="matrix(1.00, 0.00, -0.00, -1.00, 439.8, 280.6)">n</text><text xml:space="preserve" font-family="ClanPro-WideBook,Clan Pro" font-size="18.0" fill="#FEFFFF" transform="matrix(1.00, 0.00, -0.00, -1.00, 453.0, 280.6)"> </text><text xml:space="preserve" font-family="ClanPro-WideBook,Clan Pro" font-size="18.0" fill="#FEFFFF" transform="matrix(1.00, 0.00, -0.00, -1.00, 459.7, 280.6)">S</text><text xml:space="preserve" font-family="ClanPro-WideBook,Clan Pro" font-size="18.0" fill="#FEFFFF" transform="matrix(1.00, 0.00, -0.00, -1.00, 471.7, 280.6)">p</text><text xml:space="preserve" font-family="ClanPro-WideBook,Clan Pro" font-size="18.0" fill="#FEFFFF" transform="matrix(1.00, 0.00, -0.00, -1.00, 485.0, 280.6)">r</text><text xml:space="preserve" font-family="ClanPro-WideBook,Clan Pro" font-size="18.0" fill="#FEFFFF" transform="matrix(1.00, 0.00, -0.00, -1.00, 494.3, 280.6)">i</text><text xml:space="preserve" font-family="ClanPro-WideBook,Clan Pro" font-size="18.0" fill="#FEFFFF" transform="matrix(1.00, 0.00, -0.00, -1.00, 500.8, 280.6)">n</text><text xml:space="preserve" font-family="ClanPro-WideBook,Clan Pro" font-size="18.0" fill="#FEFFFF" transform="matrix(1.00, 0.00, -0.00, -1.00, 513.9, 280.6)">t</text><text xml:space="preserve" font-family="ClanPro-WideBook,Clan Pro" font-size="18.0" fill="#FEFFFF" transform="matrix(1.00, 0.00, -0.00, -1.00, 522.1, 280.6)"> </text><text xml:space="preserve" font-family="ClanPro-WideBook,Clan Pro" font-size="18.0" fill="#FEFFFF" transform="matrix(1.00, 0.00, -0.00, -1.00, 528.8, 280.6)">J</text><text xml:space="preserve" font-family="ClanPro-WideBook,Clan Pro" font-size="18.0" fill="#FEFFFF" transform="matrix(1.00, 0.00, -0.00, -1.00, 540.7, 280.6)">u</text><text xml:space="preserve" font-family="ClanPro-WideBook,Clan Pro" font-size="18.0" fill="#FEFFFF" transform="matrix(1.00, 0.00, -0.00, -1.00, 553.6, 280.6)">n</text><text xml:space="preserve" font-family="ClanPro-WideBook,Clan Pro" font-size="18.0" fill="#FEFFFF" transform="matrix(1.00, 0.00, -0.00, -1.00, 566.7, 280.6)">e</text><text xml:space="preserve" font-family="ClanPro-WideBook,Clan Pro" font-size="18.0" fill="#FEFFFF" transform="matrix(1.00, 0.00, -0.00, -1.00, 578.9, 280.6)"> </text><text xml:space="preserve" font-family="ClanPro-WideBook,Clan Pro" font-size="18.0" fill="#FEFFFF" transform="matrix(1.00, 0.00, -0.00, -1.00, 585.6, 280.6)">2</text><text xml:space="preserve" font-family="ClanPro-WideBook,Clan Pro" font-size="18.0" fill="#FEFFFF" transform="matrix(1.00, 0.00, -0.00, -1.00, 599.5, 280.6)">0</text><text xml:space="preserve" font-family="ClanPro-WideBook,Clan Pro" font-size="18.0" fill="#FEFFFF" transform="matrix(1.00, 0.00, -0.00, -1.00, 613.4, 280.6)">1</text><text xml:space="preserve" font-family="ClanPro-WideBook,Clan Pro" font-size="18.0" fill="#FEFFFF" transform="matrix(1.00, 0.00, -0.00, -1.00, 627.3, 280.6)">5</text><image xlink:href="../../63FDE3F6-E1E4-4BEC-8BAE-FAEF5D63F8B5/assets/4E35CE18E95B476E0150A7C2ED6ECF98.png" width="400.00" height="369.00" transform="matrix(0.71, 0.00, -0.00, -0.72, 369.0, 641.0)"></image><g><clipPath id="clip0x608002ea36c0"><path d="M 518.4 229.8 C 522.0 226.3 522.0 220.5 518.4 217.0 C 514.9 213.4 509.1 213.4 505.6 217.0 C 502.0 220.5 502.0 226.3 505.6 229.8 C 509.1 233.4 514.9 233.4 518.4 229.8 Z M 518.4 229.8 "></path></clipPath><g clip-path="url(#clip0x608002ea36c0)"><image xlink:href="../../63FDE3F6-E1E4-4BEC-8BAE-FAEF5D63F8B5/assets/2E46DA311AF3B73A4E9A2E7FFBE936DB.png" width="256.00" height="256.00" transform="matrix(0.50, 0.00, -0.00, -0.50, 502.9, 232.5)"></image></g></g><g><clipPath id="clip0x608002ca1da0"><path d="M 515.7 227.1 C 517.8 225.1 517.8 221.7 515.7 219.7 C 513.7 217.6 510.3 217.6 508.3 219.7 C 506.2 221.7 506.2 225.1 508.3 227.1 C 510.3 229.2 513.7 229.2 515.7 227.1 Z M 515.7 227.1 "></path></clipPath><g clip-path="url(#clip0x608002ca1da0)"><image xlink:href="../../63FDE3F6-E1E4-4BEC-8BAE-FAEF5D63F8B5/assets/8943A03227D21559E14828F71E302379.png" width="256.00" height="256.00" transform="matrix(0.50, 0.00, -0.00, -0.50, 506.7, 228.7)"></image></g></g><path d="M 0.1 0.5 L 213.1 0.5 " fill="none" stroke="#FEFFFE" stroke-width="3.00" stroke-linecap="round" stroke-dasharray="0.0, 9.0" transform="matrix(0.00, 1.00, 1.00, 0.00, 512.0, 3.9)"></path></g></svg>