<?xml version="1.0" encoding="UTF-8" standalone="no"?><svg xmlns="http://www.w3.org/2000/svg" xmlns:xlink="http://www.w3.org/1999/xlink" clip-rule="evenodd" stroke-miterlimit="10" viewBox="0 0 281 34"><desc>SVG generated by Keynote</desc><defs></defs><g transform="matrix(1.00, 0.00, -0.00, -1.00, 0.0, 34.0)"><text xml:space="preserve" font-family="ClanPro-WideThin,Clan Pro" font-size="36.0" fill="#FEFFFF" transform="matrix(1.00, 0.00, -0.00, -1.00, 0.8, 3.1)">T</text><text xml:space="preserve" font-family="ClanPro-WideThin,Clan Pro" font-size="36.0" fill="#FEFFFF" transform="matrix(1.00, 0.00, -0.00, -1.00, 25.2, 3.1)">h</text><text xml:space="preserve" font-family="ClanPro-WideThin,Clan Pro" font-size="36.0" fill="#FEFFFF" transform="matrix(1.00, 0.00, -0.00, -1.00, 51.8, 3.1)">e</text><text xml:space="preserve" font-family="ClanPro-WideThin,Clan Pro" font-size="36.0" fill="#FEFFFF" transform="matrix(1.00, 0.00, -0.00, -1.00, 76.3, 3.1)"> </text><text xml:space="preserve" font-family="ClanPro-WideThin,Clan Pro" font-size="36.0" fill="#FEFFFF" transform="matrix(1.00, 0.00, -0.00, -1.00, 90.5, 3.1)">R</text><text xml:space="preserve" font-family="ClanPro-WideThin,Clan Pro" font-size="36.0" fill="#FEFFFF" transform="matrix(1.00, 0.00, -0.00, -1.00, 118.2, 3.1)">e</text><text xml:space="preserve" font-family="ClanPro-WideThin,Clan Pro" font-size="36.0" fill="#FEFFFF" transform="matrix(1.00, 0.00, -0.00, -1.00, 142.6, 3.1)">s</text><text xml:space="preserve" font-family="ClanPro-WideThin,Clan Pro" font-size="36.0" fill="#FEFFFF" transform="matrix(1.00, 0.00, -0.00, -1.00, 163.7, 3.1)">e</text><text xml:space="preserve" font-family="ClanPro-WideThin,Clan Pro" font-size="36.0" fill="#FEFFFF" transform="matrix(1.00, 0.00, -0.00, -1.00, 188.2, 3.1)">a</text><text xml:space="preserve" font-family="ClanPro-WideThin,Clan Pro" font-size="36.0" fill="#FEFFFF" transform="matrix(1.00, 0.00, -0.00, -1.00, 212.3, 3.1)">r</text><text xml:space="preserve" font-family="ClanPro-WideThin,Clan Pro" font-size="36.0" fill="#FEFFFF" transform="matrix(1.00, 0.00, -0.00, -1.00, 230.3, 3.1)">c</text><text xml:space="preserve" font-family="ClanPro-WideThin,Clan Pro" font-size="36.0" fill="#FEFFFF" transform="matrix(1.00, 0.00, -0.00, -1.00, 252.0, 3.1)">h</text><text xml:space="preserve" font-family="ClanPro-WideThin,Clan Pro" font-size="36.0" fill="#FEFFFF" transform="matrix(1.00, 0.00, -0.00, -1.00, 278.6, 3.1)"> </text></g></svg>