<?xml version="1.0" encoding="UTF-8" standalone="no"?><svg xmlns="http://www.w3.org/2000/svg" xmlns:xlink="http://www.w3.org/1999/xlink" clip-rule="evenodd" stroke-miterlimit="10" viewBox="0 0 1024 768"><desc>SVG generated by Keynote</desc><defs></defs><g transform="matrix(1.00, 0.00, -0.00, -1.00, 0.0, 768.0)"><path d="M 0.0 768.0 L 1024.0 768.0 L 1024.0 0.0 L 0.0 0.0 Z M 0.0 768.0 " fill="#002451"></path><g opacity="0.50"><g><clipPath id="clip0x608002ea7620"><path d="M 655.8 649.8 C 662.9 642.7 662.9 631.2 655.8 624.1 C 648.7 617.0 637.2 617.0 630.1 624.1 C 623.0 631.2 623.0 642.7 630.1 649.8 C 637.2 656.9 648.7 656.9 655.8 649.8 Z M 655.8 649.8 "></path></clipPath><g clip-path="url(#clip0x608002ea7620)"><g><clipPath id="clip0x6080032b0620"><path d="M 623.0 617.0 L 663.0 617.0 L 663.0 657.0 L 623.0 657.0 Z M 623.0 617.0 "></path></clipPath><g clip-path="url(#clip0x6080032b0620)"><image xlink:href="../../3B1DFD4E-EDB6-4487-BF4B-B2D9ACE584F3/assets/E06C9D332A34147D9209487109CECAD1.png" width="256.00" height="256.00" transform="matrix(0.50, 0.00, -0.00, -0.50, 624.8, 655.1)"></image></g></g></g></g></g><g opacity="0.50"><g><clipPath id="clip0x608002ea8d00"><path d="M 649.3 644.4 C 652.9 640.8 652.9 635.1 649.3 631.5 C 645.8 628.0 640.0 628.0 636.5 631.5 C 633.0 635.1 633.0 640.8 636.5 644.4 C 640.0 647.9 645.8 647.9 649.3 644.4 Z M 649.3 644.4 "></path></clipPath><g clip-path="url(#clip0x608002ea8d00)"><g><clipPath id="clip0x608002ea03c0"><path d="M 632.0 627.0 L 654.0 627.0 L 654.0 649.0 L 632.0 649.0 Z M 632.0 627.0 "></path></clipPath><g clip-path="url(#clip0x608002ea03c0)"><image xlink:href="../../63FDE3F6-E1E4-4BEC-8BAE-FAEF5D63F8B5/assets/2E46DA311AF3B73A4E9A2E7FFBE936DB.png" width="256.00" height="256.00" transform="matrix(0.50, 0.00, -0.00, -0.50, 633.8, 647.0)"></image></g></g></g></g></g><g><clipPath id="clip0x6080032a0c60"><path d="M 646.7 641.7 C 648.7 639.6 648.7 636.3 646.7 634.2 C 644.6 632.2 641.2 632.2 639.2 634.2 C 637.1 636.3 637.1 639.6 639.2 641.7 C 641.2 643.8 644.6 643.8 646.7 641.7 Z M 646.7 641.7 "></path></clipPath><g clip-path="url(#clip0x6080032a0c60)"><image xlink:href="../../63FDE3F6-E1E4-4BEC-8BAE-FAEF5D63F8B5/assets/8943A03227D21559E14828F71E302379.png" width="256.00" height="256.00" transform="matrix(0.50, 0.00, -0.00, -0.50, 637.6, 643.2)"></image></g></g><text xml:space="preserve" font-family="ClanPro-WideThin,Clan Pro" font-size="36.0" fill="#FEFFFF" transform="matrix(1.00, 0.00, -0.00, -1.00, 334.8, 625.1)">T</text><text xml:space="preserve" font-family="ClanPro-WideThin,Clan Pro" font-size="36.0" fill="#FEFFFF" transform="matrix(1.00, 0.00, -0.00, -1.00, 359.2, 625.1)">h</text><text xml:space="preserve" font-family="ClanPro-WideThin,Clan Pro" font-size="36.0" fill="#FEFFFF" transform="matrix(1.00, 0.00, -0.00, -1.00, 385.8, 625.1)">e</text><text xml:space="preserve" font-family="ClanPro-WideThin,Clan Pro" font-size="36.0" fill="#FEFFFF" transform="matrix(1.00, 0.00, -0.00, -1.00, 410.3, 625.1)"> </text><text xml:space="preserve" font-family="ClanPro-WideThin,Clan Pro" font-size="36.0" fill="#FEFFFF" transform="matrix(1.00, 0.00, -0.00, -1.00, 424.5, 625.1)">R</text><text xml:space="preserve" font-family="ClanPro-WideThin,Clan Pro" font-size="36.0" fill="#FEFFFF" transform="matrix(1.00, 0.00, -0.00, -1.00, 452.2, 625.1)">e</text><text xml:space="preserve" font-family="ClanPro-WideThin,Clan Pro" font-size="36.0" fill="#FEFFFF" transform="matrix(1.00, 0.00, -0.00, -1.00, 476.6, 625.1)">s</text><text xml:space="preserve" font-family="ClanPro-WideThin,Clan Pro" font-size="36.0" fill="#FEFFFF" transform="matrix(1.00, 0.00, -0.00, -1.00, 497.7, 625.1)">e</text><text xml:space="preserve" font-family="ClanPro-WideThin,Clan Pro" font-size="36.0" fill="#FEFFFF" transform="matrix(1.00, 0.00, -0.00, -1.00, 522.2, 625.1)">a</text><text xml:space="preserve" font-family="ClanPro-WideThin,Clan Pro" font-size="36.0" fill="#FEFFFF" transform="matrix(1.00, 0.00, -0.00, -1.00, 546.3, 625.1)">r</text><text xml:space="preserve" font-family="ClanPro-WideThin,Clan Pro" font-size="36.0" fill="#FEFFFF" transform="matrix(1.00, 0.00, -0.00, -1.00, 564.3, 625.1)">c</text><text xml:space="preserve" font-family="ClanPro-WideThin,Clan Pro" font-size="36.0" fill="#FEFFFF" transform="matrix(1.00, 0.00, -0.00, -1.00, 586.0, 625.1)">h</text><text xml:space="preserve" font-family="ClanPro-WideThin,Clan Pro" font-size="36.0" fill="#FEFFFF" transform="matrix(1.00, 0.00, -0.00, -1.00, 612.6, 625.1)"> </text><text xml:space="preserve" font-family="ClanPro-NarrBlack,Clan Pro" font-weight="bold" font-size="12.0" fill="#2FA2FF" transform="matrix(1.00, 0.00, -0.00, -1.00, 575.9, 519.5)">W</text><text xml:space="preserve" font-family="ClanPro-NarrBlack,Clan Pro" font-weight="bold" font-size="12.0" fill="#2FA2FF" transform="matrix(1.00, 0.00, -0.00, -1.00, 587.1, 519.5)">e</text><text xml:space="preserve" font-family="ClanPro-NarrBlack,Clan Pro" font-weight="bold" font-size="12.0" fill="#2FA2FF" transform="matrix(1.00, 0.00, -0.00, -1.00, 593.7, 519.5)"> </text><text xml:space="preserve" font-family="ClanPro-NarrBlack,Clan Pro" font-weight="bold" font-size="12.0" fill="#2FA2FF" transform="matrix(1.00, 0.00, -0.00, -1.00, 596.4, 519.5)">t</text><text xml:space="preserve" font-family="ClanPro-NarrBlack,Clan Pro" font-weight="bold" font-size="12.0" fill="#2FA2FF" transform="matrix(1.00, 0.00, -0.00, -1.00, 600.9, 519.5)">a</text><text xml:space="preserve" font-family="ClanPro-NarrBlack,Clan Pro" font-weight="bold" font-size="12.0" fill="#2FA2FF" transform="matrix(1.00, 0.00, -0.00, -1.00, 607.4, 519.5)">l</text><text xml:space="preserve" font-family="ClanPro-NarrBlack,Clan Pro" font-weight="bold" font-size="12.0" fill="#2FA2FF" transform="matrix(1.00, 0.00, -0.00, -1.00, 610.8, 519.5)">k</text><text xml:space="preserve" font-family="ClanPro-NarrBlack,Clan Pro" font-weight="bold" font-size="12.0" fill="#2FA2FF" transform="matrix(1.00, 0.00, -0.00, -1.00, 617.6, 519.5)">e</text><text xml:space="preserve" font-family="ClanPro-NarrBlack,Clan Pro" font-weight="bold" font-size="12.0" fill="#2FA2FF" transform="matrix(1.00, 0.00, -0.00, -1.00, 624.2, 519.5)">d</text><text xml:space="preserve" font-family="ClanPro-NarrBlack,Clan Pro" font-weight="bold" font-size="12.0" fill="#2FA2FF" transform="matrix(1.00, 0.00, -0.00, -1.00, 631.3, 519.5)"> </text><text xml:space="preserve" font-family="ClanPro-NarrBlack,Clan Pro" font-weight="bold" font-size="12.0" fill="#2FA2FF" transform="matrix(1.00, 0.00, -0.00, -1.00, 634.0, 519.5)">t</text><text xml:space="preserve" font-family="ClanPro-NarrBlack,Clan Pro" font-weight="bold" font-size="12.0" fill="#2FA2FF" transform="matrix(1.00, 0.00, -0.00, -1.00, 638.4, 519.5)">o</text><text xml:space="preserve" font-family="ClanPro-NarrBlack,Clan Pro" font-weight="bold" font-size="12.0" fill="#2FA2FF" transform="matrix(1.00, 0.00, -0.00, -1.00, 645.4, 519.5)"> </text><text xml:space="preserve" font-family="ClanPro-NarrBlack,Clan Pro" font-weight="bold" font-size="12.0" fill="#2FA2FF" transform="matrix(1.00, 0.00, -0.00, -1.00, 648.1, 519.5)">t</text><text xml:space="preserve" font-family="ClanPro-NarrBlack,Clan Pro" font-weight="bold" font-size="12.0" fill="#2FA2FF" transform="matrix(1.00, 0.00, -0.00, -1.00, 652.6, 519.5)">h</text><text xml:space="preserve" font-family="ClanPro-NarrBlack,Clan Pro" font-weight="bold" font-size="12.0" fill="#2FA2FF" transform="matrix(1.00, 0.00, -0.00, -1.00, 659.7, 519.5)">e</text><text xml:space="preserve" font-family="ClanPro-NarrBlack,Clan Pro" font-weight="bold" font-size="12.0" fill="#2FA2FF" transform="matrix(1.00, 0.00, -0.00, -1.00, 666.3, 519.5)"> </text><text xml:space="preserve" font-family="ClanPro-NarrBlack,Clan Pro" font-weight="bold" font-size="12.0" fill="#2FA2FF" transform="matrix(1.00, 0.00, -0.00, -1.00, 669.0, 519.5)">d</text><text xml:space="preserve" font-family="ClanPro-NarrBlack,Clan Pro" font-weight="bold" font-size="12.0" fill="#2FA2FF" transform="matrix(1.00, 0.00, -0.00, -1.00, 676.1, 519.5)">r</text><text xml:space="preserve" font-family="ClanPro-NarrBlack,Clan Pro" font-weight="bold" font-size="12.0" fill="#2FA2FF" transform="matrix(1.00, 0.00, -0.00, -1.00, 681.3, 519.5)">i</text><text xml:space="preserve" font-family="ClanPro-NarrBlack,Clan Pro" font-weight="bold" font-size="12.0" fill="#2FA2FF" transform="matrix(1.00, 0.00, -0.00, -1.00, 684.9, 519.5)">v</text><text xml:space="preserve" font-family="ClanPro-NarrBlack,Clan Pro" font-weight="bold" font-size="12.0" fill="#2FA2FF" transform="matrix(1.00, 0.00, -0.00, -1.00, 692.0, 519.5)">e</text><text xml:space="preserve" font-family="ClanPro-NarrBlack,Clan Pro" font-weight="bold" font-size="12.0" fill="#2FA2FF" transform="matrix(1.00, 0.00, -0.00, -1.00, 698.6, 519.5)">r</text><text xml:space="preserve" font-family="ClanPro-NarrBlack,Clan Pro" font-weight="bold" font-size="12.0" fill="#2FA2FF" transform="matrix(1.00, 0.00, -0.00, -1.00, 703.7, 519.5)">s</text><text xml:space="preserve" font-family="ClanPro-NarrBlack,Clan Pro" font-weight="bold" font-size="12.0" fill="#2FA2FF" transform="matrix(1.00, 0.00, -0.00, -1.00, 188.3, 242.3)">W</text><text xml:space="preserve" font-family="ClanPro-NarrBlack,Clan Pro" font-weight="bold" font-size="12.0" fill="#2FA2FF" transform="matrix(1.00, 0.00, -0.00, -1.00, 199.4, 242.3)">e</text><text xml:space="preserve" font-family="ClanPro-NarrBlack,Clan Pro" font-weight="bold" font-size="12.0" fill="#2FA2FF" transform="matrix(1.00, 0.00, -0.00, -1.00, 206.0, 242.3)"> </text><text xml:space="preserve" font-family="ClanPro-NarrBlack,Clan Pro" font-weight="bold" font-size="12.0" fill="#2FA2FF" transform="matrix(1.00, 0.00, -0.00, -1.00, 208.7, 242.3)">t</text><text xml:space="preserve" font-family="ClanPro-NarrBlack,Clan Pro" font-weight="bold" font-size="12.0" fill="#2FA2FF" transform="matrix(1.00, 0.00, -0.00, -1.00, 213.2, 242.3)">a</text><text xml:space="preserve" font-family="ClanPro-NarrBlack,Clan Pro" font-weight="bold" font-size="12.0" fill="#2FA2FF" transform="matrix(1.00, 0.00, -0.00, -1.00, 219.7, 242.3)">l</text><text xml:space="preserve" font-family="ClanPro-NarrBlack,Clan Pro" font-weight="bold" font-size="12.0" fill="#2FA2FF" transform="matrix(1.00, 0.00, -0.00, -1.00, 223.2, 242.3)">k</text><text xml:space="preserve" font-family="ClanPro-NarrBlack,Clan Pro" font-weight="bold" font-size="12.0" fill="#2FA2FF" transform="matrix(1.00, 0.00, -0.00, -1.00, 229.9, 242.3)">e</text><text xml:space="preserve" font-family="ClanPro-NarrBlack,Clan Pro" font-weight="bold" font-size="12.0" fill="#2FA2FF" transform="matrix(1.00, 0.00, -0.00, -1.00, 236.5, 242.3)">d</text><text xml:space="preserve" font-family="ClanPro-NarrBlack,Clan Pro" font-weight="bold" font-size="12.0" fill="#2FA2FF" transform="matrix(1.00, 0.00, -0.00, -1.00, 243.6, 242.3)"> </text><text xml:space="preserve" font-family="ClanPro-NarrBlack,Clan Pro" font-weight="bold" font-size="12.0" fill="#2FA2FF" transform="matrix(1.00, 0.00, -0.00, -1.00, 246.3, 242.3)">t</text><text xml:space="preserve" font-family="ClanPro-NarrBlack,Clan Pro" font-weight="bold" font-size="12.0" fill="#2FA2FF" transform="matrix(1.00, 0.00, -0.00, -1.00, 250.7, 242.3)">o</text><text xml:space="preserve" font-family="ClanPro-NarrBlack,Clan Pro" font-weight="bold" font-size="12.0" fill="#2FA2FF" transform="matrix(1.00, 0.00, -0.00, -1.00, 257.7, 242.3)"> </text><text xml:space="preserve" font-family="ClanPro-NarrBlack,Clan Pro" font-weight="bold" font-size="12.0" fill="#2FA2FF" transform="matrix(1.00, 0.00, -0.00, -1.00, 260.4, 242.3)">t</text><text xml:space="preserve" font-family="ClanPro-NarrBlack,Clan Pro" font-weight="bold" font-size="12.0" fill="#2FA2FF" transform="matrix(1.00, 0.00, -0.00, -1.00, 265.0, 242.3)">h</text><text xml:space="preserve" font-family="ClanPro-NarrBlack,Clan Pro" font-weight="bold" font-size="12.0" fill="#2FA2FF" transform="matrix(1.00, 0.00, -0.00, -1.00, 272.1, 242.3)">e</text><text xml:space="preserve" font-family="ClanPro-NarrBlack,Clan Pro" font-weight="bold" font-size="12.0" fill="#2FA2FF" transform="matrix(1.00, 0.00, -0.00, -1.00, 278.7, 242.3)"> </text><text xml:space="preserve" font-family="ClanPro-NarrBlack,Clan Pro" font-weight="bold" font-size="12.0" fill="#2FA2FF" transform="matrix(1.00, 0.00, -0.00, -1.00, 281.4, 242.3)">p</text><text xml:space="preserve" font-family="ClanPro-NarrBlack,Clan Pro" font-weight="bold" font-size="12.0" fill="#2FA2FF" transform="matrix(1.00, 0.00, -0.00, -1.00, 288.4, 242.3)">a</text><text xml:space="preserve" font-family="ClanPro-NarrBlack,Clan Pro" font-weight="bold" font-size="12.0" fill="#2FA2FF" transform="matrix(1.00, 0.00, -0.00, -1.00, 294.9, 242.3)">r</text><text xml:space="preserve" font-family="ClanPro-NarrBlack,Clan Pro" font-weight="bold" font-size="12.0" fill="#2FA2FF" transform="matrix(1.00, 0.00, -0.00, -1.00, 299.9, 242.3)">e</text><text xml:space="preserve" font-family="ClanPro-NarrBlack,Clan Pro" font-weight="bold" font-size="12.0" fill="#2FA2FF" transform="matrix(1.00, 0.00, -0.00, -1.00, 306.5, 242.3)">n</text><text xml:space="preserve" font-family="ClanPro-NarrBlack,Clan Pro" font-weight="bold" font-size="12.0" fill="#2FA2FF" transform="matrix(1.00, 0.00, -0.00, -1.00, 313.5, 242.3)">t</text><text xml:space="preserve" font-family="ClanPro-NarrBlack,Clan Pro" font-weight="bold" font-size="12.0" fill="#2FA2FF" transform="matrix(1.00, 0.00, -0.00, -1.00, 318.1, 242.3)">s</text><path d="M -0.0 -0.1 L 113.0 -0.1 " fill="none" stroke="#FEFFFE" stroke-width="3.00" stroke-linecap="round" stroke-dasharray="0.0, 9.0" transform="matrix(0.00, 1.00, 1.00, 0.00, 642.6, 659.0)"></path><path d="M 0.2 -0.1 L 73.2 -0.1 " fill="none" stroke="#FEFFFE" stroke-width="3.00" stroke-linecap="round" stroke-dasharray="0.0, 9.0" transform="matrix(0.00, 1.00, 1.00, 0.00, 642.6, 533.8)"></path><path d="M 0.2 -0.4 L 32.2 -0.4 " fill="none" stroke="#FEFFFE" stroke-width="3.00" stroke-linecap="round" stroke-dasharray="0.0, 9.0" transform="matrix(0.00, 1.00, 1.00, 0.00, 255.9, 257.8)"></path><image xlink:href="../../40F16EAB-83A5-44C8-88F2-866041422436/assets/1622D2A875037B400058B1FAF9B6CD76.png" width="200.00" height="193.00" transform="matrix(1.00, 0.00, -0.00, -1.00, 543.0, 507.0)"></image><path d="M 0.3 -0.1 L 133.3 -0.1 " fill="none" stroke="#FEFFFE" stroke-width="3.00" stroke-linecap="round" stroke-dasharray="0.0, 9.0" transform="matrix(0.00, 1.00, 1.00, 0.00, 642.6, -4.3)"></path><image xlink:href="../../40F16EAB-83A5-44C8-88F2-866041422436/assets/1A2CD9191988398CE5B8DE00E590F2FE.png" width="200.00" height="193.00" transform="matrix(1.00, 0.00, -0.00, -1.00, 537.0, 506.0)"></image><image xlink:href="../../40F16EAB-83A5-44C8-88F2-866041422436/assets/159C6EA4560703235638C5D4DBA1202E.png" width="200.00" height="200.00" transform="matrix(1.00, 0.00, -0.00, -1.00, 543.0, 507.0)"></image><image xlink:href="../../40F16EAB-83A5-44C8-88F2-866041422436/assets/999E4E703E6311A772A6F32EB3F2C1EA.png" width="200.00" height="200.00" transform="matrix(1.00, 0.00, -0.00, -1.00, 542.0, 508.0)"></image><image xlink:href="../../40F16EAB-83A5-44C8-88F2-866041422436/assets/58B0BF8EFC17AA67209B7D4FB786427A.png" width="200.00" height="200.00" transform="matrix(1.00, 0.00, -0.00, -1.00, 156.0, 232.0)"></image><image xlink:href="../../40F16EAB-83A5-44C8-88F2-866041422436/assets/407897D80ACDCACB930ADAE0D4AD56AE.png" width="200.00" height="200.00" transform="matrix(1.00, 0.00, -0.00, -1.00, 155.0, 232.0)"></image><image xlink:href="../../40F16EAB-83A5-44C8-88F2-866041422436/assets/44DE9E624A79BA16CB1C46FB3B0A0883.png" width="200.00" height="200.00" transform="matrix(1.00, 0.00, -0.00, -1.00, 156.0, 229.0)"></image><image xlink:href="../../40F16EAB-83A5-44C8-88F2-866041422436/assets/680DFB0D7CAF4DC967A4DE2A4A024D62.png" width="200.00" height="200.00" transform="matrix(1.01, 0.00, -0.00, -1.02, 155.0, 232.0)"></image><path d="M -0.0 0.1 L 387.0 0.1 " fill="none" stroke="#FEFFFE" stroke-width="3.00" stroke-linecap="round" stroke-dasharray="0.0, 9.0" transform="matrix(1.00, 0.00, 0.00, -1.00, 258.0, 289.6)"></path><path d="M -0.0 0.2 L 284.0 0.2 " fill="none" stroke="#FEFFFE" stroke-width="3.00" stroke-linecap="round" stroke-dasharray="0.0, 9.0" transform="matrix(1.00, 0.00, 0.00, -1.00, 360.0, 131.7)"></path></g></svg>