<?xml version="1.0" encoding="UTF-8" standalone="no"?><svg xmlns="http://www.w3.org/2000/svg" xmlns:xlink="http://www.w3.org/1999/xlink" clip-rule="evenodd" stroke-miterlimit="10" viewBox="0 0 137 14"><desc>SVG generated by Keynote</desc><defs></defs><g transform="matrix(1.00, 0.00, -0.00, -1.00, 0.0, 14.0)"><text xml:space="preserve" font-family="ClanPro-NarrBlack,Clan Pro" font-weight="bold" font-size="12.0" fill="#2FA2FF" transform="matrix(1.00, 0.00, -0.00, -1.00, 1.9, 1.5)">W</text><text xml:space="preserve" font-family="ClanPro-NarrBlack,Clan Pro" font-weight="bold" font-size="12.0" fill="#2FA2FF" transform="matrix(1.00, 0.00, -0.00, -1.00, 13.1, 1.5)">e</text><text xml:space="preserve" font-family="ClanPro-NarrBlack,Clan Pro" font-weight="bold" font-size="12.0" fill="#2FA2FF" transform="matrix(1.00, 0.00, -0.00, -1.00, 19.7, 1.5)"> </text><text xml:space="preserve" font-family="ClanPro-NarrBlack,Clan Pro" font-weight="bold" font-size="12.0" fill="#2FA2FF" transform="matrix(1.00, 0.00, -0.00, -1.00, 22.4, 1.5)">t</text><text xml:space="preserve" font-family="ClanPro-NarrBlack,Clan Pro" font-weight="bold" font-size="12.0" fill="#2FA2FF" transform="matrix(1.00, 0.00, -0.00, -1.00, 26.9, 1.5)">a</text><text xml:space="preserve" font-family="ClanPro-NarrBlack,Clan Pro" font-weight="bold" font-size="12.0" fill="#2FA2FF" transform="matrix(1.00, 0.00, -0.00, -1.00, 33.4, 1.5)">l</text><text xml:space="preserve" font-family="ClanPro-NarrBlack,Clan Pro" font-weight="bold" font-size="12.0" fill="#2FA2FF" transform="matrix(1.00, 0.00, -0.00, -1.00, 36.8, 1.5)">k</text><text xml:space="preserve" font-family="ClanPro-NarrBlack,Clan Pro" font-weight="bold" font-size="12.0" fill="#2FA2FF" transform="matrix(1.00, 0.00, -0.00, -1.00, 43.6, 1.5)">e</text><text xml:space="preserve" font-family="ClanPro-NarrBlack,Clan Pro" font-weight="bold" font-size="12.0" fill="#2FA2FF" transform="matrix(1.00, 0.00, -0.00, -1.00, 50.2, 1.5)">d</text><text xml:space="preserve" font-family="ClanPro-NarrBlack,Clan Pro" font-weight="bold" font-size="12.0" fill="#2FA2FF" transform="matrix(1.00, 0.00, -0.00, -1.00, 57.3, 1.5)"> </text><text xml:space="preserve" font-family="ClanPro-NarrBlack,Clan Pro" font-weight="bold" font-size="12.0" fill="#2FA2FF" transform="matrix(1.00, 0.00, -0.00, -1.00, 60.0, 1.5)">t</text><text xml:space="preserve" font-family="ClanPro-NarrBlack,Clan Pro" font-weight="bold" font-size="12.0" fill="#2FA2FF" transform="matrix(1.00, 0.00, -0.00, -1.00, 64.4, 1.5)">o</text><text xml:space="preserve" font-family="ClanPro-NarrBlack,Clan Pro" font-weight="bold" font-size="12.0" fill="#2FA2FF" transform="matrix(1.00, 0.00, -0.00, -1.00, 71.4, 1.5)"> </text><text xml:space="preserve" font-family="ClanPro-NarrBlack,Clan Pro" font-weight="bold" font-size="12.0" fill="#2FA2FF" transform="matrix(1.00, 0.00, -0.00, -1.00, 74.1, 1.5)">t</text><text xml:space="preserve" font-family="ClanPro-NarrBlack,Clan Pro" font-weight="bold" font-size="12.0" fill="#2FA2FF" transform="matrix(1.00, 0.00, -0.00, -1.00, 78.6, 1.5)">h</text><text xml:space="preserve" font-family="ClanPro-NarrBlack,Clan Pro" font-weight="bold" font-size="12.0" fill="#2FA2FF" transform="matrix(1.00, 0.00, -0.00, -1.00, 85.7, 1.5)">e</text><text xml:space="preserve" font-family="ClanPro-NarrBlack,Clan Pro" font-weight="bold" font-size="12.0" fill="#2FA2FF" transform="matrix(1.00, 0.00, -0.00, -1.00, 92.3, 1.5)"> </text><text xml:space="preserve" font-family="ClanPro-NarrBlack,Clan Pro" font-weight="bold" font-size="12.0" fill="#2FA2FF" transform="matrix(1.00, 0.00, -0.00, -1.00, 95.0, 1.5)">d</text><text xml:space="preserve" font-family="ClanPro-NarrBlack,Clan Pro" font-weight="bold" font-size="12.0" fill="#2FA2FF" transform="matrix(1.00, 0.00, -0.00, -1.00, 102.1, 1.5)">r</text><text xml:space="preserve" font-family="ClanPro-NarrBlack,Clan Pro" font-weight="bold" font-size="12.0" fill="#2FA2FF" transform="matrix(1.00, 0.00, -0.00, -1.00, 107.3, 1.5)">i</text><text xml:space="preserve" font-family="ClanPro-NarrBlack,Clan Pro" font-weight="bold" font-size="12.0" fill="#2FA2FF" transform="matrix(1.00, 0.00, -0.00, -1.00, 110.9, 1.5)">v</text><text xml:space="preserve" font-family="ClanPro-NarrBlack,Clan Pro" font-weight="bold" font-size="12.0" fill="#2FA2FF" transform="matrix(1.00, 0.00, -0.00, -1.00, 118.0, 1.5)">e</text><text xml:space="preserve" font-family="ClanPro-NarrBlack,Clan Pro" font-weight="bold" font-size="12.0" fill="#2FA2FF" transform="matrix(1.00, 0.00, -0.00, -1.00, 124.6, 1.5)">r</text><text xml:space="preserve" font-family="ClanPro-NarrBlack,Clan Pro" font-weight="bold" font-size="12.0" fill="#2FA2FF" transform="matrix(1.00, 0.00, -0.00, -1.00, 129.7, 1.5)">s</text></g></svg>