<?xml version="1.0" encoding="UTF-8" standalone="no"?><svg xmlns="http://www.w3.org/2000/svg" xmlns:xlink="http://www.w3.org/1999/xlink" clip-rule="evenodd" stroke-miterlimit="10" viewBox="0 0 262 34"><desc>SVG generated by Keynote</desc><defs></defs><g transform="matrix(1.00, 0.00, -0.00, -1.00, 0.0, 34.0)"><text xml:space="preserve" font-family="ClanPro-WideThin,Clan Pro" font-size="36.0" fill="#FEFFFF" transform="matrix(1.00, 0.00, -0.00, -1.00, 1.6, 2.5)">T</text><text xml:space="preserve" font-family="ClanPro-WideThin,Clan Pro" font-size="36.0" fill="#FEFFFF" transform="matrix(1.00, 0.00, -0.00, -1.00, 26.0, 2.5)">h</text><text xml:space="preserve" font-family="ClanPro-WideThin,Clan Pro" font-size="36.0" fill="#FEFFFF" transform="matrix(1.00, 0.00, -0.00, -1.00, 52.6, 2.5)">e</text><text xml:space="preserve" font-family="ClanPro-WideThin,Clan Pro" font-size="36.0" fill="#FEFFFF" transform="matrix(1.00, 0.00, -0.00, -1.00, 77.1, 2.5)"> </text><text xml:space="preserve" font-family="ClanPro-WideThin,Clan Pro" font-size="36.0" fill="#FEFFFF" transform="matrix(1.00, 0.00, -0.00, -1.00, 91.3, 2.5)">S</text><text xml:space="preserve" font-family="ClanPro-WideThin,Clan Pro" font-size="36.0" fill="#FEFFFF" transform="matrix(1.00, 0.00, -0.00, -1.00, 115.3, 2.5)">o</text><text xml:space="preserve" font-family="ClanPro-WideThin,Clan Pro" font-size="36.0" fill="#FEFFFF" transform="matrix(1.00, 0.00, -0.00, -1.00, 141.4, 2.5)">l</text><text xml:space="preserve" font-family="ClanPro-WideThin,Clan Pro" font-size="36.0" fill="#FEFFFF" transform="matrix(1.00, 0.00, -0.00, -1.00, 153.9, 2.5)">u</text><text xml:space="preserve" font-family="ClanPro-WideThin,Clan Pro" font-size="36.0" fill="#FEFFFF" transform="matrix(1.00, 0.00, -0.00, -1.00, 179.1, 2.5)">t</text><text xml:space="preserve" font-family="ClanPro-WideThin,Clan Pro" font-size="36.0" fill="#FEFFFF" transform="matrix(1.00, 0.00, -0.00, -1.00, 195.6, 2.5)">i</text><text xml:space="preserve" font-family="ClanPro-WideThin,Clan Pro" font-size="36.0" fill="#FEFFFF" transform="matrix(1.00, 0.00, -0.00, -1.00, 208.5, 2.5)">o</text><text xml:space="preserve" font-family="ClanPro-WideThin,Clan Pro" font-size="36.0" fill="#FEFFFF" transform="matrix(1.00, 0.00, -0.00, -1.00, 234.5, 2.5)">n</text><text xml:space="preserve" font-family="ClanPro-WideThin,Clan Pro" font-size="36.0" fill="#FEFFFF" transform="matrix(1.00, 0.00, -0.00, -1.00, 260.8, 2.5)"> </text></g></svg>