<?xml version="1.0" encoding="UTF-8" standalone="no"?><svg xmlns="http://www.w3.org/2000/svg" xmlns:xlink="http://www.w3.org/1999/xlink" clip-rule="evenodd" stroke-miterlimit="10" viewBox="0 0 304 57"><desc>SVG generated by Keynote</desc><defs></defs><g transform="matrix(1.00, 0.00, -0.00, -1.00, 0.0, 57.0)"><text xml:space="preserve" font-family="ClanPro-NarrNews,Clan Pro" font-size="15.0" fill="#FEFFFF" transform="matrix(1.00, 0.00, -0.00, -1.00, 78.5, 42.8)">S</text><text xml:space="preserve" font-family="ClanPro-NarrNews,Clan Pro" font-size="15.0" fill="#FEFFFF" transform="matrix(1.00, 0.00, -0.00, -1.00, 86.2, 42.8)">a</text><text xml:space="preserve" font-family="ClanPro-NarrNews,Clan Pro" font-size="15.0" fill="#FEFFFF" transform="matrix(1.00, 0.00, -0.00, -1.00, 94.0, 42.8)">f</text><text xml:space="preserve" font-family="ClanPro-NarrNews,Clan Pro" font-size="15.0" fill="#FEFFFF" transform="matrix(1.00, 0.00, -0.00, -1.00, 99.2, 42.8)">e</text><text xml:space="preserve" font-family="ClanPro-NarrNews,Clan Pro" font-size="15.0" fill="#FEFFFF" transform="matrix(1.00, 0.00, -0.00, -1.00, 107.0, 42.8)">t</text><text xml:space="preserve" font-family="ClanPro-NarrNews,Clan Pro" font-size="15.0" fill="#FEFFFF" transform="matrix(1.00, 0.00, -0.00, -1.00, 112.3, 42.8)">y</text><text xml:space="preserve" font-family="ClanPro-NarrNews,Clan Pro" font-size="15.0" fill="#FEFFFF" transform="matrix(1.00, 0.00, -0.00, -1.00, 120.9, 42.8)"> </text><text xml:space="preserve" font-family="ClanPro-NarrNews,Clan Pro" font-size="15.0" fill="#FEFFFF" transform="matrix(1.00, 0.00, -0.00, -1.00, 125.0, 42.8)">i</text><text xml:space="preserve" font-family="ClanPro-NarrNews,Clan Pro" font-size="15.0" fill="#FEFFFF" transform="matrix(1.00, 0.00, -0.00, -1.00, 129.3, 42.8)">s</text><text xml:space="preserve" font-family="ClanPro-NarrNews,Clan Pro" font-size="15.0" fill="#FEFFFF" transform="matrix(1.00, 0.00, -0.00, -1.00, 136.0, 42.8)"> </text><text xml:space="preserve" font-family="ClanPro-NarrNews,Clan Pro" font-size="15.0" fill="#FEFFFF" transform="matrix(1.00, 0.00, -0.00, -1.00, 140.1, 42.8)">T</text><text xml:space="preserve" font-family="ClanPro-NarrNews,Clan Pro" font-size="15.0" fill="#FEFFFF" transform="matrix(1.00, 0.00, -0.00, -1.00, 147.3, 42.8)">o</text><text xml:space="preserve" font-family="ClanPro-NarrNews,Clan Pro" font-size="15.0" fill="#FEFFFF" transform="matrix(1.00, 0.00, -0.00, -1.00, 155.6, 42.8)">p</text><text xml:space="preserve" font-family="ClanPro-NarrNews,Clan Pro" font-size="15.0" fill="#FEFFFF" transform="matrix(1.00, 0.00, -0.00, -1.00, 164.1, 42.8)"> </text><text xml:space="preserve" font-family="ClanPro-NarrNews,Clan Pro" font-size="15.0" fill="#FEFFFF" transform="matrix(1.00, 0.00, -0.00, -1.00, 168.2, 42.8)">P</text><text xml:space="preserve" font-family="ClanPro-NarrNews,Clan Pro" font-size="15.0" fill="#FEFFFF" transform="matrix(1.00, 0.00, -0.00, -1.00, 177.1, 42.8)">r</text><text xml:space="preserve" font-family="ClanPro-NarrNews,Clan Pro" font-size="15.0" fill="#FEFFFF" transform="matrix(1.00, 0.00, -0.00, -1.00, 183.2, 42.8)">i</text><text xml:space="preserve" font-family="ClanPro-NarrNews,Clan Pro" font-size="15.0" fill="#FEFFFF" transform="matrix(1.00, 0.00, -0.00, -1.00, 187.4, 42.8)">o</text><text xml:space="preserve" font-family="ClanPro-NarrNews,Clan Pro" font-size="15.0" fill="#FEFFFF" transform="matrix(1.00, 0.00, -0.00, -1.00, 195.8, 42.8)">r</text><text xml:space="preserve" font-family="ClanPro-NarrNews,Clan Pro" font-size="15.0" fill="#FEFFFF" transform="matrix(1.00, 0.00, -0.00, -1.00, 201.9, 42.8)">i</text><text xml:space="preserve" font-family="ClanPro-NarrNews,Clan Pro" font-size="15.0" fill="#FEFFFF" transform="matrix(1.00, 0.00, -0.00, -1.00, 206.1, 42.8)">t</text><text xml:space="preserve" font-family="ClanPro-NarrNews,Clan Pro" font-size="15.0" fill="#FEFFFF" transform="matrix(1.00, 0.00, -0.00, -1.00, 211.5, 42.8)">y</text><text xml:space="preserve" font-family="ClanPro-NarrNews,Clan Pro" font-size="15.0" fill="#FEFFFF" transform="matrix(1.00, 0.00, -0.00, -1.00, 220.1, 42.8)"> </text><text xml:space="preserve" font-family="ClanPro-NarrBook,Clan Pro" font-size="15.0" fill="#FEFFFF" transform="matrix(1.00, 0.00, -0.00, -1.00, 1.2, 23.8)">C</text><text xml:space="preserve" font-family="ClanPro-NarrBook,Clan Pro" font-size="15.0" fill="#FEFFFF" transform="matrix(1.00, 0.00, -0.00, -1.00, 9.4, 23.8)">r</text><text xml:space="preserve" font-family="ClanPro-NarrBook,Clan Pro" font-size="15.0" fill="#FEFFFF" transform="matrix(1.00, 0.00, -0.00, -1.00, 15.1, 23.8)">e</text><text xml:space="preserve" font-family="ClanPro-NarrBook,Clan Pro" font-size="15.0" fill="#FEFFFF" transform="matrix(1.00, 0.00, -0.00, -1.00, 22.9, 23.8)">a</text><text xml:space="preserve" font-family="ClanPro-NarrBook,Clan Pro" font-size="15.0" fill="#FEFFFF" transform="matrix(1.00, 0.00, -0.00, -1.00, 30.6, 23.8)">t</text><text xml:space="preserve" font-family="ClanPro-NarrBook,Clan Pro" font-size="15.0" fill="#FEFFFF" transform="matrix(1.00, 0.00, -0.00, -1.00, 35.6, 23.8)">e</text><text xml:space="preserve" font-family="ClanPro-NarrBook,Clan Pro" font-size="15.0" fill="#FEFFFF" transform="matrix(1.00, 0.00, -0.00, -1.00, 43.4, 23.8)">d</text><text xml:space="preserve" font-family="ClanPro-NarrBook,Clan Pro" font-size="15.0" fill="#FEFFFF" transform="matrix(1.00, 0.00, -0.00, -1.00, 51.8, 23.8)"> </text><text xml:space="preserve" font-family="ClanPro-NarrBook,Clan Pro" font-size="15.0" fill="#FEFFFF" transform="matrix(1.00, 0.00, -0.00, -1.00, 56.2, 23.8)">t</text><text xml:space="preserve" font-family="ClanPro-NarrBook,Clan Pro" font-size="15.0" fill="#FEFFFF" transform="matrix(1.00, 0.00, -0.00, -1.00, 61.4, 23.8)">h</text><text xml:space="preserve" font-family="ClanPro-NarrBook,Clan Pro" font-size="15.0" fill="#FEFFFF" transform="matrix(1.00, 0.00, -0.00, -1.00, 69.8, 23.8)">e</text><text xml:space="preserve" font-family="ClanPro-NarrBook,Clan Pro" font-size="15.0" fill="#FEFFFF" transform="matrix(1.00, 0.00, -0.00, -1.00, 77.6, 23.8)"> </text><text xml:space="preserve" font-family="ClanPro-NarrBook,Clan Pro" font-size="15.0" fill="#FEFFFF" transform="matrix(1.00, 0.00, -0.00, -1.00, 81.9, 23.8)">p</text><text xml:space="preserve" font-family="ClanPro-NarrBook,Clan Pro" font-size="15.0" fill="#FEFFFF" transform="matrix(1.00, 0.00, -0.00, -1.00, 90.3, 23.8)">e</text><text xml:space="preserve" font-family="ClanPro-NarrBook,Clan Pro" font-size="15.0" fill="#FEFFFF" transform="matrix(1.00, 0.00, -0.00, -1.00, 98.0, 23.8)">r</text><text xml:space="preserve" font-family="ClanPro-NarrBook,Clan Pro" font-size="15.0" fill="#FEFFFF" transform="matrix(1.00, 0.00, -0.00, -1.00, 103.7, 23.8)">c</text><text xml:space="preserve" font-family="ClanPro-NarrBook,Clan Pro" font-size="15.0" fill="#FEFFFF" transform="matrix(1.00, 0.00, -0.00, -1.00, 110.3, 23.8)">e</text><text xml:space="preserve" font-family="ClanPro-NarrBook,Clan Pro" font-size="15.0" fill="#FEFFFF" transform="matrix(1.00, 0.00, -0.00, -1.00, 118.0, 23.8)">p</text><text xml:space="preserve" font-family="ClanPro-NarrBook,Clan Pro" font-size="15.0" fill="#FEFFFF" transform="matrix(1.00, 0.00, -0.00, -1.00, 126.3, 23.8)">t</text><text xml:space="preserve" font-family="ClanPro-NarrBook,Clan Pro" font-size="15.0" fill="#FEFFFF" transform="matrix(1.00, 0.00, -0.00, -1.00, 131.5, 23.8)">i</text><text xml:space="preserve" font-family="ClanPro-NarrBook,Clan Pro" font-size="15.0" fill="#FEFFFF" transform="matrix(1.00, 0.00, -0.00, -1.00, 135.7, 23.8)">o</text><text xml:space="preserve" font-family="ClanPro-NarrBook,Clan Pro" font-size="15.0" fill="#FEFFFF" transform="matrix(1.00, 0.00, -0.00, -1.00, 143.9, 23.8)">n</text><text xml:space="preserve" font-family="ClanPro-NarrBook,Clan Pro" font-size="15.0" fill="#FEFFFF" transform="matrix(1.00, 0.00, -0.00, -1.00, 152.2, 23.8)"> </text><text xml:space="preserve" font-family="ClanPro-NarrBook,Clan Pro" font-size="15.0" fill="#FEFFFF" transform="matrix(1.00, 0.00, -0.00, -1.00, 156.6, 23.8)">o</text><text xml:space="preserve" font-family="ClanPro-NarrBook,Clan Pro" font-size="15.0" fill="#FEFFFF" transform="matrix(1.00, 0.00, -0.00, -1.00, 164.7, 23.8)">f</text><text xml:space="preserve" font-family="ClanPro-NarrBook,Clan Pro" font-size="15.0" fill="#FEFFFF" transform="matrix(1.00, 0.00, -0.00, -1.00, 170.1, 23.8)"> </text><text xml:space="preserve" font-family="ClanPro-NarrBook,Clan Pro" font-size="15.0" fill="#FEFFFF" transform="matrix(1.00, 0.00, -0.00, -1.00, 174.4, 23.8)">s</text><text xml:space="preserve" font-family="ClanPro-NarrBook,Clan Pro" font-size="15.0" fill="#FEFFFF" transform="matrix(1.00, 0.00, -0.00, -1.00, 181.1, 23.8)">a</text><text xml:space="preserve" font-family="ClanPro-NarrBook,Clan Pro" font-size="15.0" fill="#FEFFFF" transform="matrix(1.00, 0.00, -0.00, -1.00, 188.8, 23.8)">f</text><text xml:space="preserve" font-family="ClanPro-NarrBook,Clan Pro" font-size="15.0" fill="#FEFFFF" transform="matrix(1.00, 0.00, -0.00, -1.00, 193.9, 23.8)">e</text><text xml:space="preserve" font-family="ClanPro-NarrBook,Clan Pro" font-size="15.0" fill="#FEFFFF" transform="matrix(1.00, 0.00, -0.00, -1.00, 201.5, 23.8)">t</text><text xml:space="preserve" font-family="ClanPro-NarrBook,Clan Pro" font-size="15.0" fill="#FEFFFF" transform="matrix(1.00, 0.00, -0.00, -1.00, 206.7, 23.8)">y</text><text xml:space="preserve" font-family="ClanPro-NarrBook,Clan Pro" font-size="15.0" fill="#FEFFFF" transform="matrix(1.00, 0.00, -0.00, -1.00, 215.2, 23.8)"> </text><text xml:space="preserve" font-family="ClanPro-NarrBook,Clan Pro" font-size="15.0" fill="#FEFFFF" transform="matrix(1.00, 0.00, -0.00, -1.00, 219.6, 23.8)">b</text><text xml:space="preserve" font-family="ClanPro-NarrBook,Clan Pro" font-size="15.0" fill="#FEFFFF" transform="matrix(1.00, 0.00, -0.00, -1.00, 227.8, 23.8)">y</text><text xml:space="preserve" font-family="ClanPro-NarrBook,Clan Pro" font-size="15.0" fill="#FEFFFF" transform="matrix(1.00, 0.00, -0.00, -1.00, 236.3, 23.8)"> </text><text xml:space="preserve" font-family="ClanPro-NarrBook,Clan Pro" font-size="15.0" fill="#FEFFFF" transform="matrix(1.00, 0.00, -0.00, -1.00, 240.6, 23.8)">a</text><text xml:space="preserve" font-family="ClanPro-NarrBook,Clan Pro" font-size="15.0" fill="#FEFFFF" transform="matrix(1.00, 0.00, -0.00, -1.00, 248.4, 23.8)">d</text><text xml:space="preserve" font-family="ClanPro-NarrBook,Clan Pro" font-size="15.0" fill="#FEFFFF" transform="matrix(1.00, 0.00, -0.00, -1.00, 256.8, 23.8)">d</text><text xml:space="preserve" font-family="ClanPro-NarrBook,Clan Pro" font-size="15.0" fill="#FEFFFF" transform="matrix(1.00, 0.00, -0.00, -1.00, 265.2, 23.8)">i</text><text xml:space="preserve" font-family="ClanPro-NarrBook,Clan Pro" font-size="15.0" fill="#FEFFFF" transform="matrix(1.00, 0.00, -0.00, -1.00, 269.4, 23.8)">n</text><text xml:space="preserve" font-family="ClanPro-NarrBook,Clan Pro" font-size="15.0" fill="#FEFFFF" transform="matrix(1.00, 0.00, -0.00, -1.00, 277.7, 23.8)">g</text><text xml:space="preserve" font-family="ClanPro-NarrBook,Clan Pro" font-size="15.0" fill="#FEFFFF" transform="matrix(1.00, 0.00, -0.00, -1.00, 285.3, 23.8)"> </text><text xml:space="preserve" font-family="ClanPro-NarrBook,Clan Pro" font-size="15.0" fill="#FEFFFF" transform="matrix(1.00, 0.00, -0.00, -1.00, 289.7, 23.8)">a</text><text xml:space="preserve" font-family="ClanPro-NarrBook,Clan Pro" font-size="15.0" fill="#FEFFFF" transform="matrix(1.00, 0.00, -0.00, -1.00, 297.4, 23.8)"> </text><text xml:space="preserve" font-family="ClanPro-NarrBook,Clan Pro" font-size="15.0" fill="#FEFFFF" transform="matrix(1.00, 0.00, -0.00, -1.00, 301.8, 23.8)"> </text><text xml:space="preserve" font-family="ClanPro-NarrBook,Clan Pro" font-size="15.0" fill="#FEFFFF" transform="matrix(1.00, 0.00, -0.00, -1.00, 59.5, 4.8)">s</text><text xml:space="preserve" font-family="ClanPro-NarrBook,Clan Pro" font-size="15.0" fill="#FEFFFF" transform="matrix(1.00, 0.00, -0.00, -1.00, 65.9, 4.8)">t</text><text xml:space="preserve" font-family="ClanPro-NarrBook,Clan Pro" font-size="15.0" fill="#FEFFFF" transform="matrix(1.00, 0.00, -0.00, -1.00, 71.1, 4.8)">r</text><text xml:space="preserve" font-family="ClanPro-NarrBook,Clan Pro" font-size="15.0" fill="#FEFFFF" transform="matrix(1.00, 0.00, -0.00, -1.00, 76.8, 4.8)">e</text><text xml:space="preserve" font-family="ClanPro-NarrBook,Clan Pro" font-size="15.0" fill="#FEFFFF" transform="matrix(1.00, 0.00, -0.00, -1.00, 84.6, 4.8)">a</text><text xml:space="preserve" font-family="ClanPro-NarrBook,Clan Pro" font-size="15.0" fill="#FEFFFF" transform="matrix(1.00, 0.00, -0.00, -1.00, 92.3, 4.8)">m</text><text xml:space="preserve" font-family="ClanPro-NarrBook,Clan Pro" font-size="15.0" fill="#FEFFFF" transform="matrix(1.00, 0.00, -0.00, -1.00, 104.6, 4.8)">i</text><text xml:space="preserve" font-family="ClanPro-NarrBook,Clan Pro" font-size="15.0" fill="#FEFFFF" transform="matrix(1.00, 0.00, -0.00, -1.00, 108.8, 4.8)">n</text><text xml:space="preserve" font-family="ClanPro-NarrBook,Clan Pro" font-size="15.0" fill="#FEFFFF" transform="matrix(1.00, 0.00, -0.00, -1.00, 117.2, 4.8)">g</text><text xml:space="preserve" font-family="ClanPro-NarrBook,Clan Pro" font-size="15.0" fill="#FEFFFF" transform="matrix(1.00, 0.00, -0.00, -1.00, 124.8, 4.8)"> </text><text xml:space="preserve" font-family="ClanPro-NarrBook,Clan Pro" font-size="15.0" fill="#FEFFFF" transform="matrix(1.00, 0.00, -0.00, -1.00, 129.2, 4.8)">v</text><text xml:space="preserve" font-family="ClanPro-NarrBook,Clan Pro" font-size="15.0" fill="#FEFFFF" transform="matrix(1.00, 0.00, -0.00, -1.00, 137.6, 4.8)">i</text><text xml:space="preserve" font-family="ClanPro-NarrBook,Clan Pro" font-size="15.0" fill="#FEFFFF" transform="matrix(1.00, 0.00, -0.00, -1.00, 141.8, 4.8)">d</text><text xml:space="preserve" font-family="ClanPro-NarrBook,Clan Pro" font-size="15.0" fill="#FEFFFF" transform="matrix(1.00, 0.00, -0.00, -1.00, 150.2, 4.8)">e</text><text xml:space="preserve" font-family="ClanPro-NarrBook,Clan Pro" font-size="15.0" fill="#FEFFFF" transform="matrix(1.00, 0.00, -0.00, -1.00, 158.0, 4.8)">o</text><text xml:space="preserve" font-family="ClanPro-NarrBook,Clan Pro" font-size="15.0" fill="#FEFFFF" transform="matrix(1.00, 0.00, -0.00, -1.00, 166.2, 4.8)"> </text><text xml:space="preserve" font-family="ClanPro-NarrBook,Clan Pro" font-size="15.0" fill="#FEFFFF" transform="matrix(1.00, 0.00, -0.00, -1.00, 170.6, 4.8)">i</text><text xml:space="preserve" font-family="ClanPro-NarrBook,Clan Pro" font-size="15.0" fill="#FEFFFF" transform="matrix(1.00, 0.00, -0.00, -1.00, 174.8, 4.8)">n</text><text xml:space="preserve" font-family="ClanPro-NarrBook,Clan Pro" font-size="15.0" fill="#FEFFFF" transform="matrix(1.00, 0.00, -0.00, -1.00, 183.1, 4.8)"> </text><text xml:space="preserve" font-family="ClanPro-NarrBook,Clan Pro" font-size="15.0" fill="#FEFFFF" transform="matrix(1.00, 0.00, -0.00, -1.00, 187.4, 4.8)">t</text><text xml:space="preserve" font-family="ClanPro-NarrBook,Clan Pro" font-size="15.0" fill="#FEFFFF" transform="matrix(1.00, 0.00, -0.00, -1.00, 192.7, 4.8)">h</text><text xml:space="preserve" font-family="ClanPro-NarrBook,Clan Pro" font-size="15.0" fill="#FEFFFF" transform="matrix(1.00, 0.00, -0.00, -1.00, 201.1, 4.8)">e</text><text xml:space="preserve" font-family="ClanPro-NarrBook,Clan Pro" font-size="15.0" fill="#FEFFFF" transform="matrix(1.00, 0.00, -0.00, -1.00, 208.8, 4.8)"> </text><text xml:space="preserve" font-family="ClanPro-NarrBook,Clan Pro" font-size="15.0" fill="#FEFFFF" transform="matrix(1.00, 0.00, -0.00, -1.00, 213.2, 4.8)">c</text><text xml:space="preserve" font-family="ClanPro-NarrBook,Clan Pro" font-size="15.0" fill="#FEFFFF" transform="matrix(1.00, 0.00, -0.00, -1.00, 219.8, 4.8)">a</text><text xml:space="preserve" font-family="ClanPro-NarrBook,Clan Pro" font-size="15.0" fill="#FEFFFF" transform="matrix(1.00, 0.00, -0.00, -1.00, 227.6, 4.8)">b</text><text xml:space="preserve" font-family="ClanPro-NarrBook,Clan Pro" font-size="15.0" fill="#FEFFFF" transform="matrix(1.00, 0.00, -0.00, -1.00, 235.8, 4.8)">.</text><text xml:space="preserve" font-family="ClanPro-NarrBook,Clan Pro" font-size="15.0" fill="#FEFFFF" transform="matrix(1.00, 0.00, -0.00, -1.00, 239.1, 4.8)"> </text></g></svg>