<?xml version="1.0" encoding="UTF-8" standalone="no"?><svg xmlns="http://www.w3.org/2000/svg" xmlns:xlink="http://www.w3.org/1999/xlink" clip-rule="evenodd" stroke-miterlimit="10" viewBox="0 0 221 16"><desc>SVG generated by Keynote</desc><defs></defs><g transform="matrix(1.00, 0.00, -0.00, -1.00, 0.0, 16.0)"><text xml:space="preserve" font-family="ClanPro-NarrBlack,Clan Pro" font-weight="bold" font-size="12.0" fill="#2FA2FF" transform="matrix(1.00, 0.00, -0.00, -1.00, 1.6, 3.7)">c</text><text xml:space="preserve" font-family="ClanPro-NarrBlack,Clan Pro" font-weight="bold" font-size="12.0" fill="#2FA2FF" transform="matrix(1.00, 0.00, -0.00, -1.00, 7.0, 3.7)">r</text><text xml:space="preserve" font-family="ClanPro-NarrBlack,Clan Pro" font-weight="bold" font-size="12.0" fill="#2FA2FF" transform="matrix(1.00, 0.00, -0.00, -1.00, 12.0, 3.7)">e</text><text xml:space="preserve" font-family="ClanPro-NarrBlack,Clan Pro" font-weight="bold" font-size="12.0" fill="#2FA2FF" transform="matrix(1.00, 0.00, -0.00, -1.00, 18.6, 3.7)">a</text><text xml:space="preserve" font-family="ClanPro-NarrBlack,Clan Pro" font-weight="bold" font-size="12.0" fill="#2FA2FF" transform="matrix(1.00, 0.00, -0.00, -1.00, 25.1, 3.7)">t</text><text xml:space="preserve" font-family="ClanPro-NarrBlack,Clan Pro" font-weight="bold" font-size="12.0" fill="#2FA2FF" transform="matrix(1.00, 0.00, -0.00, -1.00, 29.6, 3.7)">e</text><text xml:space="preserve" font-family="ClanPro-NarrBlack,Clan Pro" font-weight="bold" font-size="12.0" fill="#2FA2FF" transform="matrix(1.00, 0.00, -0.00, -1.00, 36.2, 3.7)">d</text><text xml:space="preserve" font-family="ClanPro-NarrBlack,Clan Pro" font-weight="bold" font-size="12.0" fill="#2FA2FF" transform="matrix(1.00, 0.00, -0.00, -1.00, 43.2, 3.7)"> </text><text xml:space="preserve" font-family="ClanPro-NarrBlack,Clan Pro" font-weight="bold" font-size="12.0" fill="#2FA2FF" transform="matrix(1.00, 0.00, -0.00, -1.00, 45.9, 3.7)">r</text><text xml:space="preserve" font-family="ClanPro-NarrBlack,Clan Pro" font-weight="bold" font-size="12.0" fill="#2FA2FF" transform="matrix(1.00, 0.00, -0.00, -1.00, 50.8, 3.7)">a</text><text xml:space="preserve" font-family="ClanPro-NarrBlack,Clan Pro" font-weight="bold" font-size="12.0" fill="#2FA2FF" transform="matrix(1.00, 0.00, -0.00, -1.00, 57.4, 3.7)">p</text><text xml:space="preserve" font-family="ClanPro-NarrBlack,Clan Pro" font-weight="bold" font-size="12.0" fill="#2FA2FF" transform="matrix(1.00, 0.00, -0.00, -1.00, 64.4, 3.7)">i</text><text xml:space="preserve" font-family="ClanPro-NarrBlack,Clan Pro" font-weight="bold" font-size="12.0" fill="#2FA2FF" transform="matrix(1.00, 0.00, -0.00, -1.00, 68.0, 3.7)">d</text><text xml:space="preserve" font-family="ClanPro-NarrBlack,Clan Pro" font-weight="bold" font-size="12.0" fill="#2FA2FF" transform="matrix(1.00, 0.00, -0.00, -1.00, 75.1, 3.7)"> </text><text xml:space="preserve" font-family="ClanPro-NarrBlack,Clan Pro" font-weight="bold" font-size="12.0" fill="#2FA2FF" transform="matrix(1.00, 0.00, -0.00, -1.00, 77.8, 3.7)">p</text><text xml:space="preserve" font-family="ClanPro-NarrBlack,Clan Pro" font-weight="bold" font-size="12.0" fill="#2FA2FF" transform="matrix(1.00, 0.00, -0.00, -1.00, 84.8, 3.7)">r</text><text xml:space="preserve" font-family="ClanPro-NarrBlack,Clan Pro" font-weight="bold" font-size="12.0" fill="#2FA2FF" transform="matrix(1.00, 0.00, -0.00, -1.00, 89.8, 3.7)">o</text><text xml:space="preserve" font-family="ClanPro-NarrBlack,Clan Pro" font-weight="bold" font-size="12.0" fill="#2FA2FF" transform="matrix(1.00, 0.00, -0.00, -1.00, 96.7, 3.7)">t</text><text xml:space="preserve" font-family="ClanPro-NarrBlack,Clan Pro" font-weight="bold" font-size="12.0" fill="#2FA2FF" transform="matrix(1.00, 0.00, -0.00, -1.00, 101.1, 3.7)">o</text><text xml:space="preserve" font-family="ClanPro-NarrBlack,Clan Pro" font-weight="bold" font-size="12.0" fill="#2FA2FF" transform="matrix(1.00, 0.00, -0.00, -1.00, 108.1, 3.7)">t</text><text xml:space="preserve" font-family="ClanPro-NarrBlack,Clan Pro" font-weight="bold" font-size="12.0" fill="#2FA2FF" transform="matrix(1.00, 0.00, -0.00, -1.00, 112.6, 3.7)">y</text><text xml:space="preserve" font-family="ClanPro-NarrBlack,Clan Pro" font-weight="bold" font-size="12.0" fill="#2FA2FF" transform="matrix(1.00, 0.00, -0.00, -1.00, 119.9, 3.7)">p</text><text xml:space="preserve" font-family="ClanPro-NarrBlack,Clan Pro" font-weight="bold" font-size="12.0" fill="#2FA2FF" transform="matrix(1.00, 0.00, -0.00, -1.00, 127.0, 3.7)">i</text><text xml:space="preserve" font-family="ClanPro-NarrBlack,Clan Pro" font-weight="bold" font-size="12.0" fill="#2FA2FF" transform="matrix(1.00, 0.00, -0.00, -1.00, 130.6, 3.7)">n</text><text xml:space="preserve" font-family="ClanPro-NarrBlack,Clan Pro" font-weight="bold" font-size="12.0" fill="#2FA2FF" transform="matrix(1.00, 0.00, -0.00, -1.00, 137.6, 3.7)">g</text><text xml:space="preserve" font-family="ClanPro-NarrBlack,Clan Pro" font-weight="bold" font-size="12.0" fill="#2FA2FF" transform="matrix(1.00, 0.00, -0.00, -1.00, 144.3, 3.7)"> </text><text xml:space="preserve" font-family="ClanPro-NarrBlack,Clan Pro" font-weight="bold" font-size="12.0" fill="#2FA2FF" transform="matrix(1.00, 0.00, -0.00, -1.00, 147.0, 3.7)">w</text><text xml:space="preserve" font-family="ClanPro-NarrBlack,Clan Pro" font-weight="bold" font-size="12.0" fill="#2FA2FF" transform="matrix(1.00, 0.00, -0.00, -1.00, 157.1, 3.7)">i</text><text xml:space="preserve" font-family="ClanPro-NarrBlack,Clan Pro" font-weight="bold" font-size="12.0" fill="#2FA2FF" transform="matrix(1.00, 0.00, -0.00, -1.00, 160.7, 3.7)">t</text><text xml:space="preserve" font-family="ClanPro-NarrBlack,Clan Pro" font-weight="bold" font-size="12.0" fill="#2FA2FF" transform="matrix(1.00, 0.00, -0.00, -1.00, 165.2, 3.7)">h</text><text xml:space="preserve" font-family="ClanPro-NarrBlack,Clan Pro" font-weight="bold" font-size="12.0" fill="#2FA2FF" transform="matrix(1.00, 0.00, -0.00, -1.00, 172.3, 3.7)"> </text><text xml:space="preserve" font-family="ClanPro-NarrBlack,Clan Pro" font-weight="bold" font-size="12.0" fill="#2FA2FF" transform="matrix(1.00, 0.00, -0.00, -1.00, 175.0, 3.7)">p</text><text xml:space="preserve" font-family="ClanPro-NarrBlack,Clan Pro" font-weight="bold" font-size="12.0" fill="#2FA2FF" transform="matrix(1.00, 0.00, -0.00, -1.00, 182.0, 3.7)">r</text><text xml:space="preserve" font-family="ClanPro-NarrBlack,Clan Pro" font-weight="bold" font-size="12.0" fill="#2FA2FF" transform="matrix(1.00, 0.00, -0.00, -1.00, 187.0, 3.7)">o</text><text xml:space="preserve" font-family="ClanPro-NarrBlack,Clan Pro" font-weight="bold" font-size="12.0" fill="#2FA2FF" transform="matrix(1.00, 0.00, -0.00, -1.00, 194.0, 3.7)">t</text><text xml:space="preserve" font-family="ClanPro-NarrBlack,Clan Pro" font-weight="bold" font-size="12.0" fill="#2FA2FF" transform="matrix(1.00, 0.00, -0.00, -1.00, 198.4, 3.7)">o</text><text xml:space="preserve" font-family="ClanPro-NarrBlack,Clan Pro" font-weight="bold" font-size="12.0" fill="#2FA2FF" transform="matrix(1.00, 0.00, -0.00, -1.00, 205.2, 3.7)">.</text><text xml:space="preserve" font-family="ClanPro-NarrBlack,Clan Pro" font-weight="bold" font-size="12.0" fill="#2FA2FF" transform="matrix(1.00, 0.00, -0.00, -1.00, 208.3, 3.7)">i</text><text xml:space="preserve" font-family="ClanPro-NarrBlack,Clan Pro" font-weight="bold" font-size="12.0" fill="#2FA2FF" transform="matrix(1.00, 0.00, -0.00, -1.00, 211.9, 3.7)">o</text></g></svg>